<?xml version="1.0" encoding="utf-8"?>
<!-- Generator: Adobe Illustrator 23.0.1, SVG Export Plug-In . SVG Version: 6.00 Build 0)  -->
<svg version="1.1" id="Calque_1" xmlns="http://www.w3.org/2000/svg" xmlns:xlink="http://www.w3.org/1999/xlink" x="0px" y="0px"
	 viewBox="0 0 18.9 18.9" style="enable-background:new 0 0 18.9 18.9;" xml:space="preserve">
<style type="text/css">
	.st0{fill:#43BDBE;}
</style>
<g transform="translate(-11 -11)">
	<g transform="translate(11 11)">
		<path class="st0" d="M18.6,17.5L14.1,13c2.8-3.4,2.3-8.4-1.1-11.2S4.6-0.5,1.8,2.9s-2.3,8.4,1.1,11.2c2.9,2.4,7.2,2.4,10.1,0
			l4.5,4.5c0.3,0.3,0.8,0.3,1.1,0C19,18.3,19,17.8,18.6,17.5L18.6,17.5L18.6,17.5z M8,14.3c-3.5,0-6.4-2.9-6.4-6.4
			c0-3.5,2.9-6.4,6.4-6.4c3.5,0,6.4,2.9,6.4,6.4C14.3,11.5,11.5,14.3,8,14.3L8,14.3z"/>
	</g>
</g>
</svg>
