<?xml version="1.0" encoding="utf-8"?>
<!-- Generator: Adobe Illustrator 23.0.1, SVG Export Plug-In . SVG Version: 6.00 Build 0)  -->
<svg version="1.1" id="Calque_1" xmlns="http://www.w3.org/2000/svg" xmlns:xlink="http://www.w3.org/1999/xlink" x="0px" y="0px"
	 viewBox="0 0 1000 132.5" style="enable-background:new 0 0 1000 132.5;" xml:space="preserve">
<style type="text/css">
	.st0{fill:#383B3D;}
</style>
<g>
	<path class="st0" d="M100.4,55.4c0,14.3-3.5,25.2-10.5,32.6c-7,7.4-17.3,11.2-30.8,11.2c-13.3,0-23.6-3.7-30.7-11.2
		c-7.1-7.5-10.7-18.4-10.7-32.7c0-14.2,3.5-25,10.6-32.4c7.1-7.5,17.4-11.2,30.9-11.2c13.5,0,23.8,3.7,30.8,11.1
		C96.9,30.2,100.4,41.1,100.4,55.4z M41.8,55.4c0,16.4,5.7,24.7,17.2,24.7c5.8,0,10.1-2,12.9-6c2.8-4,4.2-10.2,4.2-18.7
		c0-8.5-1.4-14.8-4.3-18.8c-2.9-4.1-7.1-6.1-12.8-6.1C47.6,30.5,41.8,38.8,41.8,55.4z"/>
	<path class="st0" d="M154,99.2c-3.3,0-6.3-0.6-9-1.7c-2.6-1.1-5.3-3.1-7.9-6h-1c0.7,4.6,1,7.5,1,8.6v26.5h-22.8V32.1h18.5l3.2,8.4
		h1c4.2-6.4,10.1-9.5,17.5-9.5c7.3,0,13,3,17.2,9.1c4.2,6.1,6.2,14.4,6.2,24.9c0,10.6-2.2,19-6.5,25.1
		C167.3,96.2,161.4,99.2,154,99.2z M146.4,48.8c-3.3,0-5.7,1.2-7,3.6c-1.3,2.4-2.1,5.9-2.2,10.6v1.8c0,5.7,0.8,9.8,2.3,12.3
		c1.5,2.5,3.9,3.8,7.2,3.8c2.9,0,5-1.3,6.3-3.8c1.3-2.5,2-6.6,2-12.4c0-5.7-0.7-9.7-2-12.2C151.6,50.1,149.4,48.8,146.4,48.8z"/>
	<path class="st0" d="M223.3,81.2c3.1,0,6.7-0.8,11-2.3v16.6c-3.1,1.3-6,2.3-8.8,2.8c-2.8,0.6-6,0.8-9.7,0.8
		c-7.6,0-13.2-1.9-16.5-5.6c-3.4-3.7-5.1-9.5-5.1-17.3V49.2h-8v-9.3l10.1-7.2l5.9-13.8h14.9v13.2h16.2v17.1h-16.2v25.7
		C217.2,79.1,219.2,81.2,223.3,81.2z"/>
	<path class="st0" d="M245.4,15.7c0-3.4,1-6,2.9-7.6c1.9-1.7,5-2.5,9.2-2.5c4.2,0,7.3,0.9,9.3,2.6c1.9,1.7,2.9,4.2,2.9,7.6
		c0,6.7-4.1,10-12.2,10C249.4,25.7,245.4,22.4,245.4,15.7z M268.7,98.1H246V32.1h22.8V98.1z"/>
	<path class="st0" d="M365.6,98.1V62.2c0-4.5-0.6-7.8-1.8-10c-1.2-2.2-3.2-3.3-5.8-3.3c-3.5,0-6.1,1.5-7.7,4.5s-2.4,7.7-2.4,14v30.7
		H325V62.2c0-4.5-0.6-7.8-1.7-10c-1.2-2.2-3-3.3-5.6-3.3c-3.6,0-6.2,1.6-7.8,4.8c-1.6,3.2-2.4,8.4-2.4,15.6v28.9h-22.8V32.1h17.2
		l2.9,8.1h1.3c1.7-3,4.3-5.3,7.6-6.9c3.3-1.6,7.1-2.4,11.3-2.4c9.5,0,16.2,2.9,20,8.7h1.8c1.9-2.7,4.5-4.8,7.8-6.4
		c3.3-1.5,7-2.3,11-2.3c7.8,0,13.6,2,17.3,6c3.7,4,5.6,10.1,5.6,18.2v42.9H365.6z"/>
	<path class="st0" d="M446.8,98.1l-4.4-8.7H442c-3.1,3.8-6.2,6.4-9.4,7.8c-3.2,1.4-7.3,2.1-12.3,2.1c-6.2,0-11.1-1.9-14.7-5.6
		c-3.6-3.7-5.4-9-5.4-15.7c0-7,2.4-12.3,7.3-15.7c4.9-3.4,12-5.4,21.2-5.8l11-0.3v-0.9c0-5.4-2.7-8.1-8-8.1
		c-4.8,0-10.9,1.6-18.3,4.9l-6.6-15c7.7-4,17.4-5.9,29.1-5.9c8.5,0,15,2.1,19.6,6.3s7,10,7,17.6v43.2H446.8z M429.9,83.2
		c2.8,0,5.1-0.9,7.1-2.6c2-1.7,2.9-4,2.9-6.8v-5.1l-5.2,0.2c-7.5,0.3-11.2,3-11.2,8.3C423.5,81.1,425.6,83.2,429.9,83.2z"/>
	<path class="st0" d="M500.8,98.1h-22.8V7.5h22.8V98.1z"/>
	<path class="st0" d="M537.5,7.5h8.2v119.4h-8.2V7.5z"/>
	<path class="st0" d="M626.5,74.6c0,4.9-1.3,9.2-3.8,13.1s-6,6.7-10.4,8.6c-4.4,1.9-9.6,2.9-15.7,2.9c-3.4,0-6.8-0.3-10-1
		s-6.6-1.8-10-3.4v-6.3c6.3,3.6,13.1,5.4,20.3,5.4c7.3,0,13-1.7,17.2-5c4.2-3.4,6.3-7.9,6.3-13.5c0-2.4-0.3-4.4-1-6.1
		c-0.7-1.7-1.7-3.2-3.1-4.6c-1.4-1.4-3.1-2.7-5.3-4c-2.2-1.3-4.7-2.7-7.7-4.4c-5.8-2.9-9.9-6.1-12.2-9.5c-2.3-3.4-3.5-7.4-3.5-12
		c0-4.6,1.1-8.6,3.4-12.1c2.3-3.5,5.5-6.2,9.6-8.1c4.1-1.9,8.7-2.9,13.8-2.9c3.8,0,7.3,0.3,10.5,1c3.1,0.7,6.4,1.9,9.8,3.5l-1.9,5.5
		c-2.6-1.6-5.5-2.8-8.8-3.7c-3.3-0.9-6.5-1.3-9.6-1.3c-6.3,0-11.4,1.6-15.1,4.8c-3.7,3.2-5.6,7.4-5.6,12.7c0,4,1,7.3,2.9,9.9
		c1.9,2.6,5.4,5.2,10.6,7.7c6,3.1,10.1,5.6,12.4,7.6c2.3,2,4,4.2,5.2,6.6C625.9,68.5,626.5,71.3,626.5,74.6z"/>
	<path class="st0" d="M671.5,33.6c7,0,12.4,2.1,16.2,6.3c3.8,4.2,5.7,10,5.7,17.4c0,7.6-1.4,14.8-4.2,21.4
		c-2.8,6.7-6.6,11.7-11.4,15.2c-4.8,3.5-10.4,5.2-16.6,5.2c-7.1,0-12.6-2.1-16.3-6.4c-3.7-4.2-5.6-10.3-5.6-18.2
		c0-7.4,1.4-14.4,4.2-20.8c2.8-6.5,6.7-11.5,11.5-15C660,35.3,665.4,33.6,671.5,33.6z M671,38.6c-4.8,0-9.1,1.5-13,4.6
		c-3.8,3-6.9,7.4-9.2,13.1c-2.3,5.7-3.4,11.7-3.4,18.1c0,13.3,5.5,19.9,16.4,19.9c4.9,0,9.3-1.5,13.1-4.5c3.8-3,6.9-7.4,9.1-13.3
		c2.3-5.8,3.4-12.3,3.4-19.2c0-6-1.4-10.6-4.2-13.8C680.4,40.2,676.3,38.6,671,38.6z"/>
	<path class="st0" d="M709,98.1h-5.5L723,7.5h5.5L709,98.1z"/>
	<path class="st0" d="M749,34.8l-8.8,40.6c-0.9,4.1-1.3,7.2-1.3,9.2c0,2.9,0.9,5.1,2.8,6.8c1.8,1.7,4.5,2.5,8.1,2.5
		c4.3,0,8.3-1.3,12.1-3.8c3.8-2.5,7-6.2,9.5-10.9c2.6-4.7,4.5-10.1,5.8-16.3l6.1-28.2h5.7l-13.4,63.3h-4.7l1.6-11.9h-0.3
		c-6.5,8.6-14.3,12.9-23.5,12.9c-5.1,0-8.9-1.2-11.6-3.6c-2.6-2.4-3.9-5.9-3.9-10.5c0-2.3,0.4-5.6,1.3-9.9l8.7-40.2H749z"/>
	<path class="st0" d="M833.7,34.8l-1,4.7h-16.5l-7.9,37c-0.9,3.8-1.3,7-1.3,9.5c0,5.4,2.4,8.1,7.3,8.1c2.6,0,5.6-0.5,8.8-1.5v5
		c-3.9,1.1-7.2,1.6-9.9,1.6c-3.8,0-6.8-1.1-8.9-3.2c-2.1-2.1-3.1-5.2-3.1-9.2c0-2.8,0.6-6.8,1.7-12l7.5-35.3h-10.6l0.8-3.9l10.7-1
		l5.6-14.7h3.2L817,34.8H833.7z"/>
	<path class="st0" d="M839.3,98.1h-5.7L847,34.8h5.6L839.3,98.1z M849.5,18.6c0-2.1,0.4-3.8,1.3-5.1c0.9-1.3,2-1.9,3.5-1.9
		c2.2,0,3.3,1.4,3.3,4.2c0,2.2-0.4,4-1.3,5.2c-0.9,1.3-2,1.9-3.3,1.9c-1.1,0-2-0.4-2.6-1.1C849.8,21,849.5,19.9,849.5,18.6z"/>
	<path class="st0" d="M894.5,33.6c7,0,12.4,2.1,16.2,6.3c3.8,4.2,5.7,10,5.7,17.4c0,7.6-1.4,14.8-4.2,21.4
		c-2.8,6.7-6.6,11.7-11.4,15.2c-4.8,3.5-10.4,5.2-16.6,5.2c-7.1,0-12.6-2.1-16.3-6.4c-3.7-4.2-5.6-10.3-5.6-18.2
		c0-7.4,1.4-14.4,4.2-20.8c2.8-6.5,6.7-11.5,11.5-15C883,35.3,888.5,33.6,894.5,33.6z M894.1,38.6c-4.8,0-9.1,1.5-13,4.6
		c-3.8,3-6.9,7.4-9.2,13.1c-2.3,5.7-3.4,11.7-3.4,18.1c0,13.3,5.5,19.9,16.4,19.9c4.9,0,9.3-1.5,13.1-4.5c3.8-3,6.9-7.4,9.1-13.3
		c2.3-5.8,3.4-12.3,3.4-19.2c0-6-1.4-10.6-4.2-13.8C903.5,40.2,899.4,38.6,894.1,38.6z"/>
	<path class="st0" d="M966.7,98.1l8.7-40.3c0.8-3.6,1.2-6.6,1.2-9.1c0-3.1-0.8-5.5-2.5-7.3c-1.7-1.7-4.3-2.6-7.8-2.6
		c-4.3,0-8.4,1.3-12.3,3.9c-3.8,2.6-7,6.2-9.7,10.9c-2.6,4.7-4.6,10.2-6,16.7l-5.9,27.8h-5.7l13.4-63.3h4.8l-2.2,12.9h0.3
		c6.4-9.2,14.4-13.9,24.2-13.9c5,0,8.8,1.2,11.3,3.7c2.5,2.5,3.8,6.1,3.8,10.7c0,2.7-0.5,6.2-1.4,10.6l-8.6,39.2H966.7z"/>
</g>
</svg>
