<?xml version="1.0" encoding="utf-8"?>
<!-- Generator: Adobe Illustrator 23.0.1, SVG Export Plug-In . SVG Version: 6.00 Build 0)  -->
<svg version="1.1" id="Calque_1" xmlns="http://www.w3.org/2000/svg" xmlns:xlink="http://www.w3.org/1999/xlink" x="0px" y="0px"
	 viewBox="0 0 20 19.1" style="enable-background:new 0 0 20 19.1;" xml:space="preserve">
<style type="text/css">
	.st0{fill:#43BDBE;}
</style>
<g id="profile" transform="translate(0 -13.415)">
	<path id="Tracé_21" class="st0" d="M10,24.1c2.9,0,5.3-2.4,5.2-5.3c0-2.9-2.4-5.3-5.3-5.2c-2.9,0-5.2,2.4-5.2,5.2
		C4.7,21.7,7.1,24.1,10,24.1z M10,15c2.1,0,3.9,1.7,3.9,3.9s-1.7,3.9-3.9,3.9S6.1,21,6.1,18.8C6.1,16.7,7.8,15,10,15L10,15z"/>
	<path id="Tracé_22" class="st0" d="M0.9,32.3h18.3c0.4,0,0.7-0.3,0.7-0.7c0,0,0,0,0,0c0-3.6-3-6.6-6.6-6.6H6.8
		c-3.6,0-6.6,3-6.6,6.6C0.2,32,0.5,32.3,0.9,32.3C0.9,32.3,0.9,32.3,0.9,32.3z M6.8,26.4h6.5c2.6,0,4.8,1.9,5.2,4.5H1.6
		C2,28.3,4.2,26.4,6.8,26.4L6.8,26.4z"/>
</g>
</svg>
